<?xml version="1.0" encoding="UTF-8"?>
<svg version="1.1" xmlns="http://www.w3.org/2000/svg" width="128" height="128">
<path d="M0 0 C1.09175537 -0.0076664 1.09175537 -0.0076664 2.20556641 -0.01548767 C4.59171973 -0.02929283 6.97758123 -0.0284337 9.36376953 -0.02612305 C11.03614406 -0.03001518 12.7085176 -0.03435091 14.38088989 -0.03910828 C17.87928477 -0.04655114 21.37757869 -0.04629344 24.87597656 -0.04101562 C29.34000452 -0.03522584 33.8036169 -0.05214942 38.26757622 -0.0753603 C41.71988303 -0.0901545 45.17209108 -0.0909616 48.62442398 -0.08785057 C50.26931709 -0.088361 51.91421614 -0.09354605 53.55907822 -0.10366249 C66.50755592 -0.17352983 76.63975744 0.79893426 86.37158203 10.2746582 C92.36407671 17.52199151 94.61295824 24.45862816 94.64624023 33.90307617 C94.65135117 34.63091309 94.6564621 35.35875 94.66172791 36.10864258 C94.67553306 38.4947959 94.67467394 40.8806574 94.67236328 43.2668457 C94.67625541 44.93922023 94.68059114 46.61159378 94.68534851 48.28396606 C94.69279137 51.78236094 94.69253367 55.28065486 94.68725586 58.77905273 C94.68146607 63.24308069 94.69838966 67.70669308 94.72160053 72.17065239 C94.73639473 75.6229592 94.73720183 79.07516725 94.73409081 82.52750015 C94.73460124 84.17239326 94.73978629 85.81729231 94.74990273 87.46215439 C94.81977006 100.41063209 93.84730598 110.54283361 84.37158203 120.2746582 C77.12424872 126.26715288 70.18761207 128.51603441 60.74316406 128.54931641 C60.01532715 128.55442734 59.28749023 128.55953827 58.53759766 128.56480408 C56.15144434 128.57860923 53.76558284 128.57775011 51.37939453 128.57543945 C49.70702001 128.57933158 48.03464646 128.58366731 46.36227417 128.58842468 C42.8638793 128.59586755 39.36558537 128.59560984 35.8671875 128.59033203 C31.40315955 128.58454224 26.93954716 128.60146583 22.47558784 128.6246767 C19.02328104 128.6394709 15.57107298 128.640278 12.11874008 128.63716698 C10.47384697 128.63767741 8.82894793 128.64286246 7.18408585 128.6529789 C-5.76439186 128.72284624 -15.89659337 127.75038215 -25.62841797 118.2746582 C-31.62091265 111.02732489 -33.86979418 104.09068824 -33.90307617 94.64624023 C-33.9081871 93.91840332 -33.91329803 93.19056641 -33.91856384 92.44067383 C-33.932369 90.05452051 -33.93150987 87.66865901 -33.92919922 85.2824707 C-33.93309135 83.61009618 -33.93742708 81.93772263 -33.94218445 80.26535034 C-33.94962731 76.76695547 -33.94936961 73.26866154 -33.9440918 69.77026367 C-33.93830201 65.30623572 -33.95522559 60.84262333 -33.97843647 56.37866402 C-33.99323067 52.92635721 -33.99403777 49.47414915 -33.99092674 46.02181625 C-33.99143717 44.37692314 -33.99662223 42.7320241 -34.00673866 41.08716202 C-34.076606 28.13868431 -33.10414192 18.0064828 -23.62841797 8.2746582 C-16.38108466 2.28216352 -9.44444801 0.03328199 0 0 Z " fill="#701BDC" transform="translate(33.62841796875,-0.274658203125)"/>
<path d="M0 0 C4.62 0 9.24 0 14 0 C16.75236853 5.50473706 17.67743721 10.98835094 19 17 C20.32 11.39 21.64 5.78 23 0 C27.62 0 32.24 0 37 0 C37 10.23 37 20.46 37 31 C34.03 31 31.06 31 28 31 C27.67 25.72 27.34 20.44 27 15 C26.72285156 16.14339844 26.44570312 17.28679687 26.16015625 18.46484375 C25.79445622 19.95577465 25.42856071 21.44665761 25.0625 22.9375 C24.88009766 23.69224609 24.69769531 24.44699219 24.50976562 25.22460938 C23.11328125 30.88671875 23.11328125 30.88671875 22 32 C19.32941149 32.14115161 16.67567762 32.04247107 14 32 C12.68 27.05 11.36 22.1 10 17 C9.67 21.95 9.34 26.9 9 32 C6.03 32 3.06 32 0 32 C0 21.44 0 10.88 0 0 Z " fill="#DEC8F8" transform="translate(53,76)"/>
<path d="M0 0 C0 3.15135387 -0.35152208 3.92631341 -1.9375 6.5 C-5.42481403 12.19969605 -5.5227496 17.43949257 -5 24 C-4.23281338 27.10888996 -3.22621116 30.04395523 -2 33 C-1.01 32.7525 -1.01 32.7525 0 32.5 C6.55699198 31.407168 11.48694337 32.08535984 17.875 33.75 C23.98799388 35.17025661 27.31995344 34.78801849 32.8671875 31.99609375 C35.64156773 30.70036672 37.9836336 30.68248775 41 31 C41 31.99 41 32.98 41 34 C28.74653193 41.92778935 20.69673022 44.57301805 6 42 C13.49656296 47.68844886 20.82574226 48.06700606 30 47 C36.19283346 45.40730289 41.87215225 41.9125688 46 37 C47.24563255 34.69168719 48.25337724 32.40730401 49.17578125 29.953125 C50 28 50 28 52 26 C51.69893933 34.12863803 48.70795064 40.34677926 42.8828125 46.0859375 C34.50209387 52.95870676 27.54345838 54.66488878 16.69140625 54.40625 C8.30961862 53.48380988 2.36515735 49.23950118 -3.30859375 43.1875 C-9.39813405 35.31188205 -11.2297004 25.74566297 -10 16 C-7.73624154 9.74701245 -4.91164299 4.52725354 0 0 Z " fill="#D3BAF1" transform="translate(43,15)"/>
<path d="M0 0 C0.78915298 0.0028299 1.57830597 0.00565979 2.39137268 0.00857544 C4.88737797 0.01968193 7.38301123 0.04476795 9.87890625 0.0703125 C11.58137499 0.08035465 13.28384941 0.08947833 14.98632812 0.09765625 C19.13816201 0.1195899 23.28972127 0.15405273 27.44140625 0.1953125 C27.44140625 0.5253125 27.44140625 0.8553125 27.44140625 1.1953125 C26.75216064 1.21513184 26.06291504 1.23495117 25.3527832 1.25537109 C-0.57058484 0.47277008 -0.57058484 0.47277008 -22.99609375 10.7578125 C-23.51171875 11.5621875 -24.02734375 12.3665625 -24.55859375 13.1953125 C-25.09484375 13.7109375 -25.63109375 14.2265625 -26.18359375 14.7578125 C-31.06886153 19.86513791 -30.68455532 27.07896013 -30.70385742 33.72607422 C-30.70721603 34.4553714 -30.71057465 35.18466858 -30.71403503 35.93606567 C-30.72348652 38.33239473 -30.72548517 40.72865349 -30.7265625 43.125 C-30.72977895 44.80119861 -30.73314332 46.47739694 -30.73664856 48.15359497 C-30.7426252 51.66213634 -30.74448995 55.17065312 -30.74389648 58.67919922 C-30.74379491 63.16007351 -30.7574489 67.64078917 -30.77466869 72.1216259 C-30.78582325 75.58245559 -30.78781464 79.04324734 -30.78728676 82.50409317 C-30.78846159 84.15539217 -30.79285532 85.80669231 -30.80061913 87.45797348 C-30.81048977 89.77401388 -30.80751346 92.08971508 -30.80151367 94.40576172 C-30.8036512 96.37716629 -30.8036512 96.37716629 -30.80583191 98.38839722 C-30.31894087 105.88543138 -28.75139961 111.40028566 -23.03515625 116.57421875 C-20.96822405 118.34371437 -19.00033299 119.97444288 -16.55859375 121.1953125 C-16.55859375 121.8553125 -16.55859375 122.5153125 -16.55859375 123.1953125 C-1.40517961 125.74093531 13.85325689 125.50378014 29.1652832 125.45605469 C32.91181378 125.44454524 36.65806128 125.45131814 40.40458202 125.46319962 C43.31716541 125.47043565 46.2296818 125.46812428 49.14226723 125.46294403 C50.52447863 125.46161836 51.90669628 125.46321693 53.28890038 125.46790314 C55.21367645 125.47300996 57.13847421 125.46383997 59.06323242 125.45410156 C60.15335129 125.45251038 61.24347015 125.45091919 62.36662292 125.44927979 C65.66435034 125.17689803 68.3250664 124.27056457 71.44140625 123.1953125 C72.76140625 123.1953125 74.08140625 123.1953125 75.44140625 123.1953125 C75.44140625 122.5353125 75.44140625 121.8753125 75.44140625 121.1953125 C76.28703125 120.7003125 77.13265625 120.2053125 78.00390625 119.6953125 C83.56788973 116.1798265 87.12541347 110.06656947 89.81640625 104.1953125 C91.6010382 95.62907916 91.69476939 86.78695849 92.00390625 78.0703125 C92.06868164 76.34941406 92.06868164 76.34941406 92.13476562 74.59375 C92.23974271 71.79436107 92.3419009 68.99490035 92.44140625 66.1953125 C92.77140625 66.1953125 93.10140625 66.1953125 93.44140625 66.1953125 C93.51611975 71.15743803 93.57027185 76.11922891 93.60620117 81.08178711 C93.62119499 82.76641552 93.64159698 84.45100553 93.66772461 86.13549805 C93.85544403 98.55810646 93.72174853 108.15315895 85.46484375 118.1171875 C79.37009553 124.37665865 72.5608352 127.83130692 63.77493286 128.45600891 C62.46749115 128.4606163 61.16004944 128.46522369 59.81298828 128.4699707 C59.08515137 128.47508163 58.35731445 128.48019257 57.60742188 128.48545837 C55.22126856 128.49926353 52.83540706 128.4984044 50.44921875 128.49609375 C48.77684422 128.49998588 47.10447068 128.50432161 45.43209839 128.50907898 C41.93370351 128.51652184 38.43540959 128.51626414 34.93701172 128.51098633 C30.47298376 128.50519654 26.00937138 128.52212012 21.54541206 128.545331 C18.09310525 128.5601252 14.6408972 128.5609323 11.1885643 128.55782127 C9.54367119 128.55833171 7.89877214 128.56351676 6.25391006 128.57363319 C-6.69456764 128.64350053 -16.82676915 127.67103645 -26.55859375 118.1953125 C-32.55108843 110.94797919 -34.79996996 104.01134254 -34.83325195 94.56689453 C-34.83836288 93.83905762 -34.84347382 93.1112207 -34.84873962 92.36132812 C-34.86254478 89.97517481 -34.86168565 87.58931331 -34.859375 85.203125 C-34.86326713 83.53075047 -34.86760286 81.85837693 -34.87236023 80.18600464 C-34.87980309 76.68760976 -34.87954539 73.18931584 -34.87426758 69.69091797 C-34.86847779 65.22689001 -34.88540137 60.76327763 -34.90861225 56.29931831 C-34.92340645 52.8470115 -34.92421355 49.39480345 -34.92110252 45.94247055 C-34.92161296 44.29757744 -34.92679801 42.65267839 -34.93691444 41.00781631 C-35.00678178 28.05933861 -34.0343177 17.9271371 -24.55859375 8.1953125 C-17.01985745 1.96186976 -9.66274447 -0.13275758 0 0 Z " fill="#8639E4" transform="translate(34.55859375,-0.1953125)"/>
<path d="M0 0 C4.09545183 2.67094684 7.3309417 5.76333501 10.0859375 9.8359375 C9.7559375 10.4959375 9.4259375 11.1559375 9.0859375 11.8359375 C6.6109375 9.3609375 6.6109375 9.3609375 4.0859375 6.8359375 C3.4259375 7.4959375 2.7659375 8.1559375 2.0859375 8.8359375 C1.31056641 7.8459375 1.31056641 7.8459375 0.51953125 6.8359375 C-2.78505665 4.12012851 -4.64880832 4.4771111 -8.8515625 4.8359375 C-10.05683594 4.9184375 -11.26210937 5.0009375 -12.50390625 5.0859375 C-16.92541122 6.05836471 -19.52468455 7.98343357 -22.2265625 11.5859375 C-23.62428239 16.16029352 -23.59790577 20.25230045 -21.7265625 24.5859375 C-19.49781541 27.35265802 -18.04974198 29.07211779 -14.9140625 30.8359375 C-11.222426 31.16396726 -7.60946827 31.0689228 -3.9140625 30.8359375 C-3.9140625 32.1559375 -3.9140625 33.4759375 -3.9140625 34.8359375 C-4.9040625 34.8359375 -5.8940625 34.8359375 -6.9140625 34.8359375 C-7.2440625 35.4959375 -7.5740625 36.1559375 -7.9140625 36.8359375 C-8.831875 36.619375 -9.7496875 36.4028125 -10.6953125 36.1796875 C-19.2739204 34.23328066 -26.2476987 32.99896466 -34.9140625 34.8359375 C-38.68925795 27.06645043 -40.74063215 19.74333104 -38.11328125 11.24609375 C-36.54994743 7.52185837 -35.0502781 4.47002934 -31.9140625 1.8359375 C-31.2540625 1.8359375 -30.5940625 1.8359375 -29.9140625 1.8359375 C-30.2234375 2.5784375 -30.5328125 3.3209375 -30.8515625 4.0859375 C-31.723555 6.34285926 -32.39073257 8.4809528 -32.9140625 10.8359375 C-32.3984375 9.9490625 -31.8828125 9.0621875 -31.3515625 8.1484375 C-24.74485764 -1.80881053 -10.76704459 -4.30104462 0 0 Z " fill="#6E1BD6" transform="translate(75.9140625,14.1640625)"/>
<path d="M0 0 C8.91 0 17.82 0 27 0 C27 2.64 27 5.28 27 8 C21.39 8 15.78 8 10 8 C10 9.32 10 10.64 10 12 C14.95 12 19.9 12 25 12 C25 14.31 25 16.62 25 19 C20.05 19 15.1 19 10 19 C10 20.65 10 22.3 10 24 C15.61 24 21.22 24 27 24 C27 26.31 27 28.62 27 31 C18.09 31 9.18 31 0 31 C0 20.77 0 10.54 0 0 Z " fill="#DEC8F8" transform="translate(21,76)"/>
<path d="M0 0 C4.4331235 2.13739883 7.12530646 4.4174158 9 9 C9.7205356 15.38188672 8.84405165 18.84087804 5 24 C1.0217572 26.86803551 -2.84786308 27.69781581 -7.6796875 27.55859375 C-12.07397704 26.50070923 -15.15201653 23.39287827 -18 20 C-19.24199848 16.27400457 -19.53508555 12.87020783 -19 9 C-14.44356379 0.37531717 -9.33096617 -1.21708254 0 0 Z " fill="#ECB255" transform="translate(71,19)"/>
<path d="M0 0 C6.56896421 3.507579 11.17974125 8.56002691 14 15.4375 C14.33818094 18.13167484 14.52410278 20.50277128 14.5 23.1875 C14.49718018 23.88762207 14.49436035 24.58774414 14.49145508 25.30908203 C14.30188421 31.43031837 12.76059554 36.50105628 9 41.4375 C8.01 42.0975 7.02 42.7575 6 43.4375 C8 38.4375 8 38.4375 9.04296875 36.15234375 C11.09048664 30.34407873 11.08457162 23.54331873 9.0546875 17.73046875 C6.73788138 13.33727979 4.211758 10.1751427 0 7.4375 C-0.71414062 6.91800781 -1.42828125 6.39851562 -2.1640625 5.86328125 C-5.75709771 4.05686548 -8.93996229 3.94283792 -12.875 4 C-13.58954346 4.00684814 -14.30408691 4.01369629 -15.0402832 4.02075195 C-22.33262492 4.24416621 -25.32152455 6.12427121 -30.75 10.8125 C-33.08902853 13.54136662 -34.55174923 16.15987984 -36 19.4375 C-36.82111971 17.10841201 -37.17138518 15.89171756 -36.28515625 13.54296875 C-27.96986219 0.49884931 -15.29420489 -6.15466276 0 0 Z " fill="#E7D2FB" transform="translate(78,9.5625)"/>
<path d="M0 0 C0.33 0 0.66 0 1 0 C1 10.23 1 20.46 1 31 C9.75073481 30.92094449 9.75073481 30.92094449 18.5012207 30.81982422 C19.59007568 30.8148291 20.67893066 30.80983398 21.80078125 30.8046875 C22.91622314 30.79421387 24.03166504 30.78374023 25.1809082 30.77294922 C28 31 28 31 31 33 C31.33 22.44 31.66 11.88 32 1 C32.33 1 32.66 1 33 1 C33.02505615 1.96413818 33.0501123 2.92827637 33.07592773 3.92163086 C33.16985306 7.48687842 33.27010939 11.05192433 33.37231445 14.61694336 C33.41571985 16.16214289 33.45739071 17.70739214 33.49731445 19.25268555 C33.55488199 21.46939096 33.61861424 23.6858448 33.68359375 25.90234375 C33.70030624 26.5971434 33.71701874 27.29194305 33.73423767 28.00779724 C33.56502856 31.28762029 33.56502856 31.28762029 35 34 C36.66429051 34.09823937 38.33281931 34.12973631 40 34.125 C40.9075 34.12757812 41.815 34.13015625 42.75 34.1328125 C44.96966611 34.25173779 44.96966611 34.25173779 46 33 C47.51928038 32.92820036 49.04167482 32.91607993 50.5625 32.9375 C51.38878906 32.94652344 52.21507812 32.95554688 53.06640625 32.96484375 C53.70449219 32.97644531 54.34257813 32.98804688 55 33 C55 33.33 55 33.66 55 34 C61.93 34.495 61.93 34.495 69 35 C69 35.33 69 35.66 69 36 C65.37 36.33 61.74 36.66 58 37 C58 37.66 58 38.32 58 39 C59.98 39 61.96 39 64 39 C63.67 40.32 63.34 41.64 63 43 C58.38 43 53.76 43 49 43 C49.33 41.02 49.66 39.04 50 37 C49.01 36.505 49.01 36.505 48 36 C48 38.31 48 40.62 48 43 C46.02 43 44.04 43 42 43 C42.33 41.02 42.66 39.04 43 37 C35.08 36.67 27.16 36.34 19 36 C19 35.67 19 35.34 19 35 C12.73 34.67 6.46 34.34 0 34 C-1.48700668 31.02598664 -1.00619932 28.05181074 -0.87890625 24.8046875 C-0.85529526 24.09724396 -0.83168427 23.38980042 -0.80735779 22.66091919 C-0.73071166 20.39874245 -0.64669188 18.13690727 -0.5625 15.875 C-0.50928023 14.3424647 -0.45653982 12.80991266 -0.40429688 11.27734375 C-0.27509533 7.51801239 -0.13927963 3.75897092 0 0 Z " fill="#6B1CD2" transform="translate(20,76)"/>
<path d="M0 0 C3.3 0 6.6 0 10 0 C10 10.56 10 21.12 10 32 C6.7 32 3.4 32 0 32 C0 21.44 0 10.88 0 0 Z " fill="#DDC7F7" transform="translate(97,76)"/>
<path d="M0 0 C2.67230272 4.81014489 3.12677837 9.29244544 3.09765625 14.73828125 C3.09515869 15.70032471 3.09266113 16.66236816 3.09008789 17.65356445 C3.08098389 18.86101318 3.07187988 20.06846191 3.0625 21.3125 C3.041875 25.169375 3.02125 29.02625 3 33 C-6.9 33 -16.8 33 -27 33 C-27 32.67 -27 32.34 -27 32 C-18.09 32 -9.18 32 0 32 C0 29.36 0 26.72 0 24 C-5.61 24 -11.22 24 -17 24 C-17 22.35 -17 20.7 -17 19 C-12.05 19 -7.1 19 -2 19 C-2 16.69 -2 14.38 -2 12 C-6.95 12 -11.9 12 -17 12 C-17 10.68 -17 9.36 -17 8 C-11.39 8 -5.78 8 0 8 C0 5.36 0 2.72 0 0 Z " fill="#6A18D0" transform="translate(48,76)"/>
<path d="M0 0 C0.33 0 0.66 0 1 0 C0.69893933 8.12863803 -2.29204936 14.34677926 -8.1171875 20.0859375 C-16.50582131 26.96519775 -23.42796639 28.6112638 -34.27734375 28.4375 C-39.56943457 27.81555438 -43.58687337 25.90747166 -48 23 C-46.21875 19.1171875 -46.21875 19.1171875 -44.25 18.0625 C-42 18 -42 18 -39.31640625 19.46875 C-32.91976578 22.42220473 -25.0397866 22.02295026 -18.26953125 20.30859375 C-11.2427023 17.41803933 -5.75915802 13.24849622 -2.625 6.25 C-2.07250046 4.83752293 -1.52880463 3.42151781 -1 2 C-0.67 1.34 -0.34 0.68 0 0 Z " fill="#DECAF5" transform="translate(94,41)"/>
<path d="M0 0 C7.92 0 15.84 0 24 0 C23.34 2.31 22.68 4.62 22 7 C23.32 7 24.64 7 26 7 C26.77772405 4.66682784 27.42415568 2.38564077 28 0 C29.32 0.33 30.64 0.66 32 1 C31.34 1 30.68 1 30 1 C29.67 2.98 29.34 4.96 29 7 C30.32 7 31.64 7 33 7 C33.33 6.01 33.66 5.02 34 4 C34 4.99 34 5.98 34 7 C34.99 6.67 35.98 6.34 37 6 C39.00875442 6.27571139 41.01178687 6.60235737 43 7 C43 6.01 43 5.02 43 4 C40.525 3.505 40.525 3.505 38 3 C38 2.34 38 1.68 38 1 C41.42932071 -0.71466036 45.21716065 -0.05404056 49 0 C49 2.97 49 5.94 49 9 C38.77 9 28.54 9 18 9 C18.66 8.67 19.32 8.34 20 8 C19.65213292 6.02463255 19.65213292 6.02463255 19 4 C18.34 3.67 17.68 3.34 17 3 C17 2.34 17 1.68 17 1 C16.34 1 15.68 1 15 1 C15 2.98 15 4.96 15 7 C14.67 5.68 14.34 4.36 14 3 C12.68 3 11.36 3 10 3 C10.33 4.65 10.66 6.3 11 8 C8 7 8 7 6 6 C6 5.01 6 4.02 6 3 C6.66 2.67 7.32 2.34 8 2 C7.01 2.33 6.02 2.66 5 3 C3.77479736 6.00847418 3.77479736 6.00847418 3 9 C2.01 9 1.02 9 0 9 C0 6.03 0 3.06 0 0 Z " fill="#350882" transform="translate(40,112)"/>
<path d="M0 0 C0.78915298 0.0028299 1.57830597 0.00565979 2.39137268 0.00857544 C4.88737797 0.01968193 7.38301123 0.04476795 9.87890625 0.0703125 C11.58137499 0.08035465 13.28384941 0.08947833 14.98632812 0.09765625 C19.13816201 0.1195899 23.28972127 0.15405273 27.44140625 0.1953125 C27.44140625 0.5253125 27.44140625 0.8553125 27.44140625 1.1953125 C26.75216064 1.21513184 26.06291504 1.23495117 25.3527832 1.25537109 C-0.57058484 0.47277008 -0.57058484 0.47277008 -22.99609375 10.7578125 C-23.51171875 11.5621875 -24.02734375 12.3665625 -24.55859375 13.1953125 C-25.09484375 13.7109375 -25.63109375 14.2265625 -26.18359375 14.7578125 C-33.8533624 22.776207 -33.0173633 38.41101561 -33.0703125 48.6875 C-33.0882637 49.99945343 -33.1062149 51.31140686 -33.12471008 52.66311646 C-33.17156432 56.0988074 -33.20178597 59.53443584 -33.22814941 62.97033691 C-33.2582872 66.49727747 -33.30470018 70.02400334 -33.34960938 73.55078125 C-33.43490406 80.43216793 -33.50257119 87.31362673 -33.55859375 94.1953125 C-33.88859375 94.1953125 -34.21859375 94.1953125 -34.55859375 94.1953125 C-34.62834621 85.48469059 -34.68153244 76.774166 -34.71403027 68.06332493 C-34.7296338 64.01778301 -34.75077388 59.97243329 -34.78491211 55.92700195 C-34.81769656 52.01717701 -34.83548664 48.10753603 -34.84322548 44.19758415 C-34.84873496 42.71176193 -34.85949302 41.22594889 -34.87578392 39.74020576 C-35.00994062 26.98875838 -33.71828162 17.60255951 -24.55859375 8.1953125 C-17.01985745 1.96186976 -9.66274447 -0.13275758 0 0 Z " fill="#B790E8" transform="translate(34.55859375,-0.1953125)"/>
<path d="M0 0 C0 0.66 0 1.32 0 2 C1.65 2 3.3 2 5 2 C5 2.33 5 2.66 5 3 C-21.4 3.33 -47.8 3.66 -75 4 C-71.96784727 1.97856485 -70.96104529 1.69178873 -67.48828125 1.41015625 C-66.14950928 1.30018311 -66.14950928 1.30018311 -64.78369141 1.18798828 C-60.25263174 0.88199671 -55.72526252 0.62228889 -51.1875 0.4375 C-50.15375244 0.3950415 -49.12000488 0.35258301 -48.05493164 0.30883789 C-32.04571853 -0.26535414 -16.01659853 -0.08473011 0 0 Z " fill="#863CE5" transform="translate(99,0)"/>
<path d="M0 0 C-0.33 0.66 -0.66 1.32 -1 2 C-1.66 1.67 -2.32 1.34 -3 1 C-3 1.66 -3 2.32 -3 3 C-1.68 3.66 -0.36 4.32 1 5 C1 5.66 1 6.32 1 7 C0.34 7 -0.32 7 -1 7 C-1 6.34 -1 5.68 -1 5 C-2.32 5 -3.64 5 -5 5 C-4.01 5.721875 -3.02 6.44375 -2 7.1875 C0.94793497 9.6095123 0.94793497 9.6095123 1.375 12.8125 C1.25125 13.534375 1.1275 14.25625 1 15 C0.01 15.495 0.01 15.495 -1 16 C-1 14.35 -1 12.7 -1 11 C-1.66 11 -2.32 11 -3 11 C-3.33 11.66 -3.66 12.32 -4 13 C-4 12.01 -4 11.02 -4 10 C-4.66 10 -5.32 10 -6 10 C-5.67 11.65 -5.34 13.3 -5 15 C-5.66 15 -6.32 15 -7 15 C-7 16.32 -7 17.64 -7 19 C-9.90215168 18.69977741 -10.85737849 18.16229344 -12.8125 15.9375 C-14.37937202 12.06155342 -14.26932639 8.91047136 -13 5 C-9.21652875 -0.50323091 -6.20757225 -0.52606544 0 0 Z " fill="#FAD688" transform="translate(69,22)"/>
<path d="M0 0 C4.4331235 2.13739883 7.12530646 4.4174158 9 9 C9.7205356 15.38188672 8.84405165 18.84087804 5 24 C1.0217572 26.86803551 -2.84786308 27.69781581 -7.6796875 27.55859375 C-12.07397704 26.50070923 -15.15201653 23.39287827 -18 20 C-19.24199848 16.27400457 -19.53508555 12.87020783 -19 9 C-14.44356379 0.37531717 -9.33096617 -1.21708254 0 0 Z M-15.875 6.6875 C-17.68584708 10.40979677 -17.76965412 13.95581744 -17 18 C-15.28095248 21.06881816 -13.19285833 23.40357084 -10 25 C-8.54420413 25.09555417 -7.0839204 25.12984691 -5.625 25.125 C-4.85414062 25.12757812 -4.08328125 25.13015625 -3.2890625 25.1328125 C0.21305042 24.92961824 2.31114883 24.73805482 4.75 22.125 C6.62842232 17.42894419 6.68271875 12.98909856 6 8 C3.97656838 4.45899466 1.90982884 2.26494463 -2 1 C-8.15800491 0.19678197 -11.42440739 2.68196665 -15.875 6.6875 Z " fill="#E4B771" transform="translate(71,19)"/>
<path d="M0 0 C0.33 0 0.66 0 1 0 C1 10.23 1 20.46 1 31 C9.75073481 30.92094449 9.75073481 30.92094449 18.5012207 30.81982422 C19.59007568 30.8148291 20.67893066 30.80983398 21.80078125 30.8046875 C22.91622314 30.79421387 24.03166504 30.78374023 25.1809082 30.77294922 C28 31 28 31 31 33 C31.33 22.44 31.66 11.88 32 1 C32.33 1 32.66 1 33 1 C33.02505615 1.95890137 33.0501123 2.91780273 33.07592773 3.90576172 C33.1699862 7.45798477 33.27021058 11.01001156 33.37231445 14.56201172 C33.41566926 16.10037653 33.45734395 17.63878963 33.49731445 19.17724609 C33.55500398 21.3865414 33.61870179 23.59559348 33.68359375 25.8046875 C33.70030624 26.49432587 33.71701874 27.18396423 33.73423767 27.89450073 C33.80806995 31.57114264 33.80806995 31.57114264 35 35 C23.29865851 35.15956375 11.68076488 34.66408409 0 34 C-1.48700668 31.02598664 -1.00619932 28.05181074 -0.87890625 24.8046875 C-0.85529526 24.09724396 -0.83168427 23.38980042 -0.80735779 22.66091919 C-0.73071166 20.39874245 -0.64669188 18.13690727 -0.5625 15.875 C-0.50928023 14.3424647 -0.45653982 12.80991266 -0.40429688 11.27734375 C-0.27509533 7.51801239 -0.13927963 3.75897092 0 0 Z " fill="#8A4CDA" transform="translate(20,76)"/>
<path d="M0 0 C2.784293 2.784293 2.94910069 5.886863 3.625 9.625 C3.7590625 10.33140625 3.893125 11.0378125 4.03125 11.765625 C4.36110025 13.50911918 4.68146056 15.25440389 5 17 C8.96 16.505 8.96 16.505 13 16 C13.99 12.04 14.98 8.08 16 4 C16.81720493 7.26881973 17.11073543 9.46999069 17.0625 12.75 C17.05347656 13.54921875 17.04445313 14.3484375 17.03515625 15.171875 C17.02355469 15.77515625 17.01195313 16.3784375 17 17 C13.94027387 18.78542371 11.83645838 19.20811811 8.3125 19.0625 C6.87586654 19.00842051 5.43750606 18.97958916 4 19 C3.67 19.33 3.34 19.66 3 20 C0.78515625 20.203125 0.78515625 20.203125 -1.9375 20.25 C-2.83339844 20.27578125 -3.72929688 20.3015625 -4.65234375 20.328125 C-5.81443359 20.16570312 -5.81443359 20.16570312 -7 20 C-7.66 19.01 -8.32 18.02 -9 17 C-6.03 17 -3.06 17 0 17 C0 11.39 0 5.78 0 0 Z " fill="#6D1FCE" transform="translate(62,91)"/>
<path d="M0 0 C0 0.99 0 1.98 0 3 C-9.8103569 9.3471372 -16.9865128 13.66625422 -29 12 C-29 11.34 -29 10.68 -29 10 C-24.05 9.34 -19.1 8.68 -14 8 C-14.33 6.35 -14.66 4.7 -15 3 C-9.89665983 1.094753 -5.53657294 -0.42589023 0 0 Z " fill="#DDC6F4" transform="translate(84,46)"/>
<path d="M0 0 C5.08361638 6.63080398 4.97375194 13.8649074 4 22 C2.36412545 27.19184897 0.56826613 30.95448925 -4 34 C-2 29 -2 29 -0.94921875 26.72265625 C1.18073455 20.61328402 1.15716306 12.73837136 -1.5625 6.8125 C-2.036875 5.884375 -2.51125 4.95625 -3 4 C-2.67 3.34 -2.34 2.68 -2 2 C-1.34 2 -0.68 2 0 2 C0 1.34 0 0.68 0 0 Z " fill="#CBAAF0" transform="translate(88,19)"/>
<path d="M0 0 C0 3.15135387 -0.35152208 3.92631341 -1.9375 6.5 C-4.83754811 11.23986357 -5.12889108 15.21789603 -5.0625 20.6875 C-5.05798828 21.38939453 -5.05347656 22.09128906 -5.04882812 22.81445312 C-5.03706927 24.54300538 -5.01913454 26.27151365 -5 28 C-5.66 28 -6.32 28 -7 28 C-7 30.31 -7 32.62 -7 35 C-10.84263226 29.23605161 -10.85280097 22.75864698 -10 16 C-7.73624154 9.74701245 -4.91164299 4.52725354 0 0 Z " fill="#C2A0ED" transform="translate(43,15)"/>
<path d="M0 0 C9.25638326 0.96502719 15.96459641 4.42165119 22.1484375 11.4375 C25.72407086 16.22447038 27.86925112 19.98555154 28 26 C27.67 25.01 27.34 24.02 27 23 C26.34 23 25.68 23 25 23 C24.32845067 21.71086513 23.66291141 20.41859796 23 19.125 C22.62875 18.40570312 22.2575 17.68640625 21.875 16.9453125 C21 15 21 15 21 13 C20.401875 12.731875 19.80375 12.46375 19.1875 12.1875 C17.00152146 11.00082594 15.58667406 9.90400887 14 8 C14 7.34 14 6.68 14 6 C13.278125 5.855625 12.55625 5.71125 11.8125 5.5625 C10.4203125 5.2840625 10.4203125 5.2840625 9 5 C8.154375 4.855625 7.30875 4.71125 6.4375 4.5625 C4.03054145 4.00704803 2.15132661 3.19518145 0 2 C0 1.34 0 0.68 0 0 Z " fill="#7128CC" transform="translate(99,0)"/>
<path d="M0 0 C0.99 0.33 1.98 0.66 3 1 C2.67 1.66 2.34 2.32 2 3 C1.34 2.67 0.68 2.34 0 2 C0 2.99 0 3.98 0 5 C0.99 4.67 1.98 4.34 3 4 C3.33 4.66 3.66 5.32 4 6 C4 4.68 4 3.36 4 2 C5.32 2 6.64 2 8 2 C8.33 1.34 8.66 0.68 9 0 C9.66 0 10.32 0 11 0 C11 0.66 11 1.32 11 2 C11.99 2.33 12.98 2.66 14 3 C14 4.32 14 5.64 14 7 C10.93466836 8.53266582 7.73245728 8.10276471 4.375 8.0625 C3.66859375 8.05798828 2.9621875 8.05347656 2.234375 8.04882812 C0.48954725 8.03703875 -1.255237 8.01910324 -3 8 C-1.125 1.125 -1.125 1.125 0 0 Z " fill="#8669AC" transform="translate(46,113)"/>
<path d="M0 0 C0 0.33 0 0.66 0 1 C2.64 1.33 5.28 1.66 8 2 C8 2.33 8 2.66 8 3 C7.21496094 3.02578125 6.42992188 3.0515625 5.62109375 3.078125 C-2.82891281 3.53432167 -7.29229301 4.79788942 -13.75 10.375 C-16.08902853 13.10386662 -17.55174923 15.72237984 -19 19 C-19.82111971 16.67091201 -20.17138518 15.45421756 -19.28515625 13.10546875 C-14.82211224 6.10433581 -8.89730857 -2.10725729 0 0 Z " fill="#D5B7F1" transform="translate(61,10)"/>
<path d="M0 0 C0.33 0.66 0.66 1.32 1 2 C1.99 2.33 2.98 2.66 4 3 C4 4.32 4 5.64 4 7 C4.66 7 5.32 7 6 7 C6 7.99 6 8.98 6 10 C5.34 10 4.68 10 4 10 C4 11.32 4 12.64 4 14 C2.1875 13.8125 2.1875 13.8125 0 13 C-1.99622593 10.43342381 -2.91446059 8.5987759 -3.375 5.375 C-2.93551743 2.5916104 -2.17471852 1.72165216 0 0 Z " fill="#FAD385" transform="translate(58,27)"/>
<path d="M0 0 C-0.99 0.495 -0.99 0.495 -2 1 C-2 1.66 -2 2.32 -2 3 C-0.02 3 1.96 3 4 3 C3.67 4.32 3.34 5.64 3 7 C-1.62 7 -6.24 7 -11 7 C-10.67 5.02 -10.34 3.04 -10 1 C-6.78548731 -0.60725635 -3.56387464 -0.05748185 0 0 Z " fill="#6A479E" transform="translate(80,112)"/>
<path d="M0 0 C0.33 0 0.66 0 1 0 C1.0747135 4.96212553 1.1288656 9.92391641 1.16479492 14.88647461 C1.17978874 16.57110302 1.20019073 18.25569303 1.22631836 19.94018555 C1.49769039 37.89862861 1.49769039 37.89862861 -2 45 C-3.485 45.495 -3.485 45.495 -5 46 C-4.52607967 43.31445148 -3.95302957 40.87376696 -3 38.3125 C-0.45271899 29.87463166 -0.74769081 20.6213637 -0.4375 11.875 C-0.37272461 10.15410156 -0.37272461 10.15410156 -0.30664062 8.3984375 C-0.20166354 5.59904857 -0.09950535 2.79958785 0 0 Z " fill="#9E61E4" transform="translate(127,66)"/>
<path d="M0 0 C4.703153 1.3832803 8.10193812 4.08612262 11 8 C11 8.99 11 9.98 11 11 C10.34 11 9.68 11 9 11 C8.67 11.66 8.34 12.32 8 13 C7.54109375 12.60167969 7.0821875 12.20335937 6.609375 11.79296875 C3.47728415 9.08857938 0.36122541 6.42008229 -3 4 C-2.34 4 -1.68 4 -1 4 C-0.67 2.68 -0.34 1.36 0 0 Z " fill="#DABFF6" transform="translate(77,10)"/>
<path d="M0 0 C0.33 0 0.66 0 1 0 C0.71054661 7.81524149 -2.17669563 14.14217369 -7.73046875 19.74609375 C-9.1016288 20.89578376 -10.54392474 21.95994624 -12 23 C-12.33 22.34 -12.66 21.68 -13 21 C-13.66 20.67 -14.32 20.34 -15 20 C-14.32453125 19.45472656 -13.6490625 18.90945312 -12.953125 18.34765625 C-7.07314442 13.37686342 -3.45536113 9.30431329 -1 2 C-0.67 1.34 -0.34 0.68 0 0 Z " fill="#E4CFF4" transform="translate(94,41)"/>
<path d="M0 0 C5.94 0.66 11.88 1.32 18 2 C18 2.66 18 3.32 18 4 C20.475 4.495 20.475 4.495 23 5 C23 5.33 23 5.66 23 6 C15.11800224 7.23042005 9.48635124 7.70389887 2.609375 3.32421875 C1 2 1 2 0 0 Z " fill="#7A34D6" transform="translate(48,56)"/>
<path d="M0 0 C0.98484375 0.02707031 1.9696875 0.05414062 2.984375 0.08203125 C3.73203125 0.11683594 4.4796875 0.15164062 5.25 0.1875 C5.25 0.5175 5.25 0.8475 5.25 1.1875 C4.58613281 1.28546875 3.92226562 1.3834375 3.23828125 1.484375 C-2.09521607 2.38756579 -5.84900382 3.16066523 -9.75 7.1875 C-10.91968953 9.52687907 -10.88364221 10.96119368 -10.875 13.5625 C-10.87757812 14.33335938 -10.88015625 15.10421875 -10.8828125 15.8984375 C-10.75389788 18.1203189 -10.36383717 20.05368508 -9.75 22.1875 C-12.75 20.1875 -12.75 20.1875 -13.75 17.1875 C-14.25171564 11.06656919 -13.83833623 8.0707905 -9.75 3.1875 C-6.50916086 0.17408816 -4.37724552 -0.1563302 0 0 Z " fill="#E3C4A6" transform="translate(65.75,18.8125)"/>
<path d="M0 0 C0 2.97 0 5.94 0 9 C-0.99 8.01 -1.98 7.02 -3 6 C-3.99 6.495 -3.99 6.495 -5 7 C-5 5.68 -5 4.36 -5 3 C-6.98 3 -8.96 3 -11 3 C-11 2.34 -11 1.68 -11 1 C-7.57067929 -0.71466036 -3.78283935 -0.05404056 0 0 Z " fill="#41098A" transform="translate(89,112)"/>
<path d="M0 0 C0.33 0 0.66 0 1 0 C1 5.28 1 10.56 1 16 C4.3 16 7.6 16 11 16 C10.67 16.66 10.34 17.32 10 18 C5.38 18 0.76 18 -4 18 C-3.01 16.515 -3.01 16.515 -2 15 C-1.34 15 -0.68 15 0 15 C-0.08378906 14.41992188 -0.16757813 13.83984375 -0.25390625 13.2421875 C-0.86209421 8.57684697 -1.07205665 4.64557883 0 0 Z " fill="#6913D8" transform="translate(79,93)"/>
<path d="M0 0 C0.66 0.33 1.32 0.66 2 1 C1.979375 1.804375 1.95875 2.60875 1.9375 3.4375 C1.70366379 5.93354885 1.70366379 5.93354885 3 7 C3.04063832 8.66617115 3.042721 10.33388095 3 12 C2.360625 12.28875 1.72125 12.5775 1.0625 12.875 C-1.15206079 13.82823451 -1.15206079 13.82823451 -2 16 C-2 15.01 -2 14.02 -2 13 C-1.34 12.67 -0.68 12.34 0 12 C0 10.35 0 8.7 0 7 C-2.475 6.01 -2.475 6.01 -5 5 C-5 4.01 -5 3.02 -5 2 C-3.68 2 -2.36 2 -1 2 C-1 2.66 -1 3.32 -1 4 C-0.34 4 0.32 4 1 4 C0.67 2.68 0.34 1.36 0 0 Z " fill="#E4AD54" transform="translate(69,25)"/>
<path d="M0 0 C0.99 0.33 1.98 0.66 3 1 C5.33299825 1.03954234 7.66708189 1.04401732 10 1 C9.67 2.32 9.34 3.64 9 5 C6.03 5 3.06 5 0 5 C0 3.35 0 1.7 0 0 Z " fill="#AE9DC5" transform="translate(74,114)"/>
<path d="M0 0 C0.33 0 0.66 0 1 0 C1 1.65 1 3.3 1 5 C1.66 5 2.32 5 3 5 C2.68383092 11.16529701 -0.49215061 15.17268433 -4 20 C-4 17 -4 17 -2.5625 13.9375 C-0.52063296 9.4492451 -0.28424786 4.87142026 0 0 Z " fill="#AA76E5" transform="translate(89,33)"/>
<path d="M0 0 C3.43533844 0.29445758 5.02298284 1.01736482 7.8125 3.125 C10.55930425 6.73508559 10.56537809 8.55774361 10 13 C9.37273489 14.35231679 8.71322847 15.69098229 8 17 C7.98582031 16.33613281 7.97164063 15.67226563 7.95703125 14.98828125 C7.65303789 9.01708307 7.65303789 9.01708307 4.5625 4 C3.716875 3.34 2.87125 2.68 2 2 C1.34 1.34 0.68 0.68 0 0 Z " fill="#EBBD7B" transform="translate(69,20)"/>
<path d="M0 0 C1.32 0 2.64 0 4 0 C4 2.31 4 4.62 4 7 C2.02 7 0.04 7 -2 7 C-1.125 1.125 -1.125 1.125 0 0 Z " fill="#8262AD" transform="translate(64,112)"/>
<path d="M0 0 C0.66 0 1.32 0 2 0 C2 1.32 2 2.64 2 4 C1.01 4 0.02 4 -1 4 C-1.33 4.66 -1.66 5.32 -2 6 C-5.3 5.34 -8.6 4.68 -12 4 C-8.96474514 1.97649676 -7.80573798 1.67875982 -4.3125 1.375 C-3.50425781 1.30023438 -2.69601563 1.22546875 -1.86328125 1.1484375 C-0.94095703 1.07496094 -0.94095703 1.07496094 0 1 C0 0.67 0 0.34 0 0 Z " fill="#7228CF" transform="translate(70,45)"/>
<path d="M0 0 C0 2.62113708 -0.31292445 4.50935112 -1 7 C-0.34 7.33 0.32 7.66 1 8 C-1.90600261 9.25664978 -3.79604584 10 -7 10 C-6.52727227 5.74545047 -4.03562624 3.80795427 -1 1 C-0.67 0.67 -0.34 0.34 0 0 Z " fill="#6415C9" transform="translate(79,38)"/>
<path d="M0 0 C1.65 0.33 3.3 0.66 5 1 C5 2.65 5 4.3 5 6 C4.360625 6.103125 3.72125 6.20625 3.0625 6.3125 C2.381875 6.539375 1.70125 6.76625 1 7 C0.67 7.99 0.34 8.98 0 10 C-0.99 9.67 -1.98 9.34 -3 9 C-2.34 9 -1.68 9 -1 9 C-1 7.68 -1 6.36 -1 5 C-0.34 5 0.32 5 1 5 C0.67 3.35 0.34 1.7 0 0 Z " fill="#E8B461" transform="translate(63,32)"/>
<path d="M0 0 C0 4.29 0 8.58 0 13 C-0.66 13 -1.32 13 -2 13 C-2.41694996 11.40119187 -2.80790856 9.79558739 -3.1875 8.1875 C-3.40792969 7.29417969 -3.62835938 6.40085937 -3.85546875 5.48046875 C-4 3 -4 3 -2.61328125 1.17578125 C-1 0 -1 0 0 0 Z " fill="#C19EEC" transform="translate(92,25)"/>
<path d="M0 0 C0.33 0 0.66 0 1 0 C0.56826496 6.15222436 -0.65405342 9.81917949 -4 15 C-4.66 14.01 -5.32 13.02 -6 12 C-5.38125 10.948125 -4.7625 9.89625 -4.125 8.8125 C-2.48420892 5.94984323 -1.13015547 3.10792754 0 0 Z " fill="#CBABEA" transform="translate(94,41)"/>
<path d="M0 0 C2.5 1.6875 2.5 1.6875 5 4 C5.3125 6.75 5.3125 6.75 5 9 C4.01 9.495 4.01 9.495 3 10 C3 8.35 3 6.7 3 5 C2.34 5 1.68 5 1 5 C0.67 5.66 0.34 6.32 0 7 C0 6.01 0 5.02 0 4 C-0.66 4 -1.32 4 -2 4 C-2.33 4.66 -2.66 5.32 -3 6 C-3 5.01 -3 4.02 -3 3 C-2.01 3 -1.02 3 0 3 C0 2.01 0 1.02 0 0 Z " fill="#F6CA71" transform="translate(65,28)"/>
<path d="M0 0 C2.31 0 4.62 0 7 0 C6.01 2.31 5.02 4.62 4 7 C3.34 6.67 2.68 6.34 2 6 C2 5.34 2 4.68 2 4 C1.34 3.67 0.68 3.34 0 3 C0 2.01 0 1.02 0 0 Z " fill="#461C8B" transform="translate(57,112)"/>
<path d="M0 0 C0.33 0 0.66 0 1 0 C1.45189183 6.43945853 0.69406417 9.67620164 -3 15 C-3.99 15.495 -3.99 15.495 -5 16 C-4.25 11.25 -4.25 11.25 -2 9 C-1.32348793 6.80295489 -1.32348793 6.80295489 -0.875 4.375 C-0.62363281 3.14910156 -0.62363281 3.14910156 -0.3671875 1.8984375 C-0.24601562 1.27195312 -0.12484375 0.64546875 0 0 Z " fill="#D9AF97" transform="translate(79,28)"/>
<path d="M0 0 C0 3.15135387 -0.35152208 3.92631341 -1.9375 6.5 C-3.30339281 8.73242697 -4.15844227 10.47532682 -5 13 C-5.99 13 -6.98 13 -8 13 C-6.63589551 7.40717158 -3.84616474 4.08806189 0 0 Z " fill="#BD95ED" transform="translate(43,15)"/>
<path d="M0 0 C0.66 0 1.32 0 2 0 C2 2.64 2 5.28 2 8 C1.34 8 0.68 8 0 8 C0 9.98 0 11.96 0 14 C-0.33 14 -0.66 14 -1 14 C-1.027193 12.41676312 -1.04648306 10.83338938 -1.0625 9.25 C-1.07410156 8.36828125 -1.08570313 7.4865625 -1.09765625 6.578125 C-1.00826198 4.2181162 -0.66912821 2.25501476 0 0 Z " fill="#D0B2F4" transform="translate(35,28)"/>
<path d="M0 0 C4.05606165 0.46800711 7.46588679 0.87953208 11 3 C10.34 3.66 9.68 4.32 9 5 C5.61702587 4.82194873 4.23727939 4.21162756 1.6875 1.9375 C1.130625 1.298125 0.57375 0.65875 0 0 Z " fill="#6115C5" transform="translate(48,56)"/>
<path d="M0 0 C0.66 0.99 1.32 1.98 2 3 C1.01 4.98 0.02 6.96 -1 9 C-1.66 8.67 -2.32 8.34 -3 8 C-3.36923077 3.44615385 -3.36923077 3.44615385 -1.5 1.1875 C-1.005 0.795625 -0.51 0.40375 0 0 Z " fill="#FCD790" transform="translate(58,27)"/>
<path d="M0 0 C2.64 0 5.28 0 8 0 C7.67 0.66 7.34 1.32 7 2 C6.34 1.67 5.68 1.34 5 1 C5 1.66 5 2.32 5 3 C6.32 3.66 7.64 4.32 9 5 C9 5.66 9 6.32 9 7 C8.34 7 7.68 7 7 7 C7 6.34 7 5.68 7 5 C6.01 5 5.02 5 4 5 C1.8125 2.5 1.8125 2.5 0 0 Z " fill="#FACE76" transform="translate(61,22)"/>
<path d="M0 0 C1.49080078 0.02707031 1.49080078 0.02707031 3.01171875 0.0546875 C3.77097656 0.07789062 4.53023437 0.10109375 5.3125 0.125 C5.3125 0.455 5.3125 0.785 5.3125 1.125 C4.64863281 1.23457031 3.98476562 1.34414063 3.30078125 1.45703125 C-1.59629478 2.33636023 -5.58911428 3.11951714 -9.6875 6.125 C-9.375 4.25 -9.375 4.25 -8.6875 2.125 C-5.26655758 -0.15562828 -4.00562778 -0.09425007 0 0 Z " fill="#EDCBA7" transform="translate(65.6875,18.875)"/>
<path d="M0 0 C1.125 1.5625 1.125 1.5625 2 4 C1.125 7.75 1.125 7.75 0 11 C-1.77084117 8.29165469 -2.01052504 7.10735541 -1.6875 3.8125 C-1 1 -1 1 0 0 Z " fill="#772ED2" transform="translate(72,83)"/>
<path d="M0 0 C2.35964273 0.40683495 3.85934088 0.89814339 5.8125 2.3125 C7 4 7 4 6.6875 6.1875 C6.460625 6.785625 6.23375 7.38375 6 8 C6 7.34 6 6.68 6 6 C5.38125 5.7525 4.7625 5.505 4.125 5.25 C1.64931313 3.79371361 1.04874998 2.62187494 0 0 Z " fill="#7627D7" transform="translate(114,7)"/>
<path d="M0 0 C0.66 1.32 1.32 2.64 2 4 C-0.31 5.98 -2.62 7.96 -5 10 C-5.66 9.67 -6.32 9.34 -7 9 C-6.57847656 8.51789063 -6.15695313 8.03578125 -5.72265625 7.5390625 C-5.17480469 6.90742187 -4.62695312 6.27578125 -4.0625 5.625 C-3.51722656 4.99851562 -2.97195312 4.37203125 -2.41015625 3.7265625 C-0.93041376 2.04367666 -0.93041376 2.04367666 0 0 Z " fill="#9B56F1" transform="translate(121,110)"/>
<path d="M0 0 C1.32 1.32 2.64 2.64 4 4 C-0.62 4 -5.24 4 -10 4 C-10 3.67 -10 3.34 -10 3 C-6.7 2.67 -3.4 2.34 0 2 C0 1.34 0 0.68 0 0 Z " fill="#7219E1" transform="translate(51,107)"/>
<path d="M0 0 C0.8723412 2.99480917 1.10829766 5.63575911 1.0625 8.75 C1.05347656 9.54921875 1.04445313 10.3484375 1.03515625 11.171875 C1.01775391 12.07679687 1.01775391 12.07679687 1 13 C-0.55078125 11.82421875 -0.55078125 11.82421875 -2 10 C-1.85546875 7.51953125 -1.85546875 7.51953125 -1.1875 4.8125 C-0.97480469 3.91144531 -0.76210937 3.01039062 -0.54296875 2.08203125 C-0.36378906 1.39496094 -0.18460937 0.70789063 0 0 Z " fill="#742ED0" transform="translate(78,95)"/>
<path d="M0 0 C2.31 0 4.62 0 7 0 C7.33 0.99 7.66 1.98 8 3 C5.03 3 2.06 3 -1 3 C-0.67 2.01 -0.34 1.02 0 0 Z " fill="#E2CDF8" transform="translate(61,50)"/>
<path d="M0 0 C4.62 0.66 9.24 1.32 14 2 C14 2.33 14 2.66 14 3 C9.38 3.33 4.76 3.66 0 4 C0 2.68 0 1.36 0 0 Z " fill="#5F09BB" transform="translate(57,44)"/>
<path d="M0 0 C0.66 0.99 1.32 1.98 2 3 C-0.97 5.475 -0.97 5.475 -4 8 C-4.66 7.67 -5.32 7.34 -6 7 C-4.02 4.69 -2.04 2.38 0 0 Z " fill="#6017C3" transform="translate(90,55)"/>
<path d="M0 0 C0.33 0 0.66 0 1 0 C1.33 4.95 1.66 9.9 2 15 C1.01 15 0.02 15 -1 15 C-0.67 10.05 -0.34 5.1 0 0 Z " fill="#7D3CD2" transform="translate(92,28)"/>
<path d="M0 0 C0.66 0 1.32 0 2 0 C0.8141763 3.37503669 -0.27573689 5.64722731 -3 8 C-3.33 7.01 -3.66 6.02 -4 5 C-2.1875 2.3125 -2.1875 2.3125 0 0 Z " fill="#6613CC" transform="translate(44,16)"/>
<path d="M0 0 C2.88437779 1.29299694 4.87219421 2.65941363 7 5 C6.67 5.99 6.34 6.98 6 8 C3.66666667 5.66666667 1.33333333 3.33333333 -1 1 C-0.67 0.67 -0.34 0.34 0 0 Z " fill="#7420D4" transform="translate(72,18)"/>
<path d="M0 0 C-0.66 0 -1.32 0 -2 0 C-2 0.66 -2 1.32 -2 2 C-4.64 2 -7.28 2 -10 2 C-6.80505194 -1.19494806 -4.22040044 -1.35655728 0 0 Z " fill="#9D59F3" transform="translate(110,124)"/>
<path d="M0 0 C0.33 0.99 0.66 1.98 1 3 C-0.32 3.99 -1.64 4.98 -3 6 C-3.99 5.34 -4.98 4.68 -6 4 C-4.02 2.68 -2.04 1.36 0 0 Z " fill="#6616C5" transform="translate(85,47)"/>
<path d="M0 0 C0.5625 1.9375 0.5625 1.9375 1 4 C0.67 4.33 0.34 4.66 0 5 C-0.36760731 7.32817964 -0.70241581 9.6618385 -1 12 C-1.33 12 -1.66 12 -2 12 C-2.05395478 10.37536158 -2.09277195 8.75021459 -2.125 7.125 C-2.14820313 6.22007813 -2.17140625 5.31515625 -2.1953125 4.3828125 C-2 2 -2 2 0 0 Z " fill="#B27CF5" transform="translate(3,22)"/>
<path d="M0 0 C-0.33 0.99 -0.66 1.98 -1 3 C-2.65 2.67 -4.3 2.34 -6 2 C-6 1.34 -6 0.68 -6 0 C-3.50907189 -1.24546405 -2.58919267 -0.7767578 0 0 Z " fill="#8977AC" transform="translate(84,116)"/>
<path d="M0 0 C2 2 2 2 2.125 4.625 C2.08375 5.40875 2.0425 6.1925 2 7 C-1 6 -1 6 -3 5 C-3 4.01 -3 3.02 -3 2 C-2.34 2 -1.68 2 -1 2 C-0.67 1.34 -0.34 0.68 0 0 Z " fill="#20087A" transform="translate(49,113)"/>
<path d="M0 0 C0.66 0.99 1.32 1.98 2 3 C-2.1795645 5.78637633 -4.14668677 4.79562512 -9 4 C-9 3.67 -9 3.34 -9 3 C-5.92382812 2.70703125 -5.92382812 2.70703125 -2.84765625 2.4140625 C-2.23792969 2.27742188 -1.62820312 2.14078125 -1 2 C-0.67 1.34 -0.34 0.68 0 0 Z " fill="#5E0BCA" transform="translate(76,105)"/>
<path d="M0 0 C0.66 0.99 1.32 1.98 2 3 C0.68 5.31 -0.64 7.62 -2 10 C-2.6875 8.375 -2.6875 8.375 -3 6 C-1.5625 2.75 -1.5625 2.75 0 0 Z " fill="#BC8EEB" transform="translate(44,19)"/>
<path d="M0 0 C0.66 0.33 1.32 0.66 2 1 C1.01 1 0.02 1 -1 1 C-0.67 0.67 -0.34 0.34 0 0 Z " fill="#5A35FF" transform="translate(115,122)"/>
<path d="M0 0 C0.99 0.33 1.98 0.66 3 1 C2.01 1 1.02 1 0 1 C0 0.67 0 0.34 0 0 Z " fill="#3510E9" transform="translate(11,122)"/>
<path d="M0 0 C0 3 0 3 0 3 Z " fill="#5A35FF" transform="translate(123,114)"/>
<path d="M0 0 C0.99 0.495 0.99 0.495 2 1 C1.67 1.66 1.34 2.32 1 3 C0.67 2.01 0.34 1.02 0 0 Z " fill="#3510E9" transform="translate(4,114)"/>
<path d="M0 0 C0.99 0.495 0.99 0.495 2 1 C1.67 1.66 1.34 2.32 1 3 C0.67 2.01 0.34 1.02 0 0 Z " fill="#3510AA" transform="translate(122,11)"/>
<path d="M0 0 C0 3 0 3 0 3 Z " fill="#9A4ABF" transform="translate(5,11)"/>
<path d="M0 0 C0.99 0.33 1.98 0.66 3 1 C2.01 1 1.02 1 0 1 C0 0.67 0 0.34 0 0 Z " fill="#3510AA" transform="translate(114,4)"/>
<path d="M0 0 C0.66 0.33 1.32 0.66 2 1 C1.01 1 0.02 1 -1 1 C-0.67 0.67 -0.34 0.34 0 0 Z " fill="#9A4ABF" transform="translate(12,4)"/>
<path d="M0 0 C3 1 3 1 3 1 Z " fill="#CD9CFF" transform="translate(106,127)"/>
<path d="M0 0 C3 1 3 1 3 1 Z " fill="#B815FF" transform="translate(19,127)"/>
<path d="" fill="#CD9CFF" transform="translate(0,0)"/>
<path d="" fill="#B815E9" transform="translate(0,0)"/>
<path d="" fill="#B815E9" transform="translate(0,0)"/>
<path d="" fill="#CDB8FF" transform="translate(0,0)"/>
<path d="M0 0 C3 1 3 1 3 1 Z " fill="#B815E9" transform="translate(106,0)"/>
<path d="M0 0 C3 1 3 1 3 1 Z " fill="#CDB8FF" transform="translate(19,0)"/>
<path d="M0 0 C2 1 2 1 2 1 Z " fill="#CCB2E5" transform="translate(109,126)"/>
<path d="M0 0 C2 1 2 1 2 1 Z " fill="#B219E5" transform="translate(17,126)"/>
<path d="M0 0 C2 1 2 1 2 1 Z " fill="#4C33E5" transform="translate(111,125)"/>
<path d="M0 0 C2 1 2 1 2 1 Z " fill="#3319E5" transform="translate(15,125)"/>
<path d="" fill="#4C33E5" transform="translate(0,0)"/>
<path d="" fill="#3319E5" transform="translate(0,0)"/>
<path d="" fill="#CCB2E5" transform="translate(0,0)"/>
<path d="" fill="#B219E5" transform="translate(0,0)"/>
<path d="" fill="#B219E5" transform="translate(0,0)"/>
<path d="" fill="#CCCCE5" transform="translate(0,0)"/>
<path d="" fill="#3319E5" transform="translate(0,0)"/>
<path d="" fill="#CC4CE5" transform="translate(0,0)"/>
<path d="M0 0 C2 1 2 1 2 1 Z " fill="#3319E5" transform="translate(111,2)"/>
<path d="M0 0 C2 1 2 1 2 1 Z " fill="#CC4CE5" transform="translate(15,2)"/>
<path d="M0 0 C2 1 2 1 2 1 Z " fill="#B219E5" transform="translate(109,1)"/>
<path d="M0 0 C2 1 2 1 2 1 Z " fill="#CCCCE5" transform="translate(17,1)"/>
<path d="" fill="#BF80FF" transform="translate(0,0)"/>
<path d="" fill="#8040BF" transform="translate(0,0)"/>
<path d="" fill="#BF80FF" transform="translate(0,0)"/>
<path d="" fill="#8040BF" transform="translate(0,0)"/>
<path d="" fill="#9966FF" transform="translate(0,0)"/>
<path d="" fill="#6633CC" transform="translate(0,0)"/>
<path d="" fill="#9966FF" transform="translate(0,0)"/>
<path d="" fill="#6633CC" transform="translate(0,0)"/>
<path d="" fill="#9966FF" transform="translate(0,0)"/>
<path d="" fill="#6633CC" transform="translate(0,0)"/>
<path d="" fill="#BF80FF" transform="translate(0,0)"/>
<path d="" fill="#8040FF" transform="translate(0,0)"/>
<path d="" fill="#BF80FF" transform="translate(0,0)"/>
<path d="" fill="#8040BF" transform="translate(0,0)"/>
<path d="" fill="#8040BF" transform="translate(0,0)"/>
<path d="" fill="#BF80FF" transform="translate(0,0)"/>
<path d="" fill="#8040BF" transform="translate(0,0)"/>
<path d="" fill="#BFBFFF" transform="translate(0,0)"/>
<path d="" fill="#6633CC" transform="translate(0,0)"/>
<path d="" fill="#CC99FF" transform="translate(0,0)"/>
<path d="" fill="#6633CC" transform="translate(0,0)"/>
<path d="" fill="#CC99FF" transform="translate(0,0)"/>
<path d="" fill="#6633CC" transform="translate(0,0)"/>
<path d="" fill="#CC99FF" transform="translate(0,0)"/>
<path d="" fill="#8040BF" transform="translate(0,0)"/>
<path d="" fill="#BFBFFF" transform="translate(0,0)"/>
<path d="" fill="#8040BF" transform="translate(0,0)"/>
<path d="" fill="#BF80FF" transform="translate(0,0)"/>
</svg>
